<?xml version="1.0" standalone="no"?>
<!DOCTYPE svg PUBLIC "-//W3C//DTD SVG 20010904//EN"
 "http://www.w3.org/TR/2001/REC-SVG-20010904/DTD/svg10.dtd">
<svg version="1.0" xmlns="http://www.w3.org/2000/svg"
 width="1280.000000pt" height="1126.000000pt" viewBox="0 0 1280.000000 1126.000000"
 preserveAspectRatio="xMidYMid meet">
<metadata>
Created by potrace 1.15, written by Peter Selinger 2001-2017
</metadata>
<g transform="translate(0.000000,1126.000000) scale(0.100000,-0.100000)"
fill="#000000" stroke="none">
<path d="M10054 11120 c-447 -230 -447 -230 -861 -230 -244 0 -299 -3 -381
-20 -82 -16 -187 -47 -253 -75 -11 -4 -18 0 -22 14 -6 26 -51 37 -84 22 l-26
-12 6 -197 c4 -108 10 -565 13 -1015 l7 -818 -21 -6 c-24 -6 -37 -63 -30 -132
l3 -40 -40 -5 c-22 -3 -92 -10 -155 -16 -351 -34 -634 -122 -714 -223 -27 -34
-31 -46 -30 -101 1 -72 26 -124 74 -153 39 -23 50 -52 55 -153 2 -47 13 -119
23 -160 11 -41 17 -91 15 -111 -3 -20 0 -53 5 -73 9 -32 8 -42 -13 -72 -26
-39 -41 -122 -32 -186 6 -46 42 -90 97 -118 104 -53 314 -97 513 -107 70 -3
124 -9 120 -13 -4 -4 -258 -99 -563 -210 -305 -112 -579 -214 -609 -228 -52
-24 -60 -25 -175 -18 -114 6 -291 28 -300 37 -2 2 21 170 52 374 l57 369 60
34 c70 39 85 55 85 95 0 67 -49 95 -127 72 -27 -8 -284 -117 -573 -243 l-525
-229 -3 348 -2 348 25 25 c19 19 25 35 25 70 0 57 -14 93 -39 101 -18 5 -19
17 -23 201 -2 160 -6 196 -18 204 -8 5 -43 10 -77 10 -51 0 -64 -3 -73 -19 -6
-11 -10 -90 -10 -185 l0 -164 -74 -79 c-40 -43 -289 -289 -552 -547 -264 -258
-819 -808 -1234 -1221 -1321 -1314 -1945 -1917 -3048 -2944 -433 -403 -391
-373 -508 -356 -48 7 -53 6 -67 -16 -9 -13 -18 -49 -22 -80 l-7 -57 58 -22
c79 -29 671 -242 1419 -510 336 -120 855 -307 1155 -415 300 -109 560 -202
579 -208 38 -12 36 -9 116 -216 120 -307 260 -589 518 -1046 69 -123 83 -154
74 -169 -15 -30 -1 -186 18 -205 14 -14 153 -16 1383 -16 1568 0 2553 9 4592
40 201 3 660 10 1020 15 675 10 827 16 850 30 9 5 13 30 13 76 0 87 -8 112
-39 120 -13 3 -24 7 -24 8 0 2 43 81 97 177 326 588 454 924 737 1943 41 147
77 271 81 274 3 4 20 11 38 17 57 18 103 116 114 241 7 80 -10 100 -94 109
-32 3 -65 7 -73 8 -8 1 -16 14 -18 30 -2 15 -7 27 -11 27 -5 0 -2 24 6 53 8
31 11 74 8 109 -4 35 -2 59 4 63 6 3 11 18 11 34 0 24 6 28 46 39 37 10 48 18
60 48 18 43 10 95 -19 122 -32 30 -165 59 -298 66 -64 3 -175 13 -245 21 -281
32 -1213 101 -1494 110 -225 8 -230 8 -230 39 0 46 -37 55 -126 30 -19 -5 -22
0 -28 60 -4 36 -18 109 -31 161 -14 52 -25 99 -25 103 0 5 24 35 53 68 61 68
68 80 56 112 -18 47 -68 21 -128 -66 l-22 -32 -40 60 c-22 32 -53 70 -70 84
-37 31 -37 50 1 161 16 49 30 98 30 110 0 46 -50 61 -74 23 -7 -13 -21 -54
-30 -93 -9 -38 -22 -83 -28 -98 -10 -26 -13 -27 -57 -22 -116 15 -111 7 -111
170 0 61 -4 116 -9 123 -5 8 -21 12 -37 10 l-29 -3 -5 -143 -5 -144 -38 -13
c-21 -7 -56 -25 -78 -39 -28 -19 -41 -23 -43 -14 -3 7 -12 37 -21 66 -20 63
-20 75 30 562 19 184 42 412 50 505 42 468 54 560 120 970 24 149 67 430 95
625 29 195 53 355 53 355 29 8 113 55 123 69 20 30 17 73 -7 97 -34 34 -99 21
-347 -70 -122 -44 -226 -81 -230 -81 -4 1 -18 18 -31 38 -22 34 -23 44 -18
130 4 51 11 101 17 112 5 10 10 59 10 108 0 61 5 99 16 120 8 18 14 43 12 56
-2 17 9 35 39 64 66 64 83 177 36 241 -28 38 -117 88 -204 116 -150 47 -469
95 -636 95 l-83 0 0 79 c0 67 -3 81 -20 92 -18 13 -19 29 -21 371 -2 328 -1
359 16 385 29 46 58 74 100 96 39 21 52 22 365 22 345 1 428 8 718 61 123 22
481 109 490 119 15 15 77 655 91 950 18 358 18 469 1 472 -8 2 -137 -60 -286
-137z m-1634 -2845 l0 -135 -25 0 c-14 0 -25 1 -25 3 0 2 -5 29 -11 61 -8 43
-7 61 2 72 8 9 9 31 5 64 -8 59 -3 70 30 70 l24 0 0 -135z m177 88 c-3 -10 -5
-2 -5 17 0 19 2 27 5 18 2 -10 2 -26 0 -35z m256 32 l88 -7 -7 -59 c-4 -36 -3
-64 4 -72 6 -7 8 -27 3 -47 -6 -33 -10 -35 -56 -42 -28 -3 -77 -7 -111 -7
l-60 -1 -3 42 c-1 23 -4 45 -7 49 -3 5 3 20 12 33 12 20 14 37 9 76 -7 50 -6
51 17 46 12 -3 63 -8 111 -11z m-613 -63 c0 -32 5 -63 11 -69 7 -7 9 -29 4
-62 l-7 -51 -37 0 c-21 0 -66 3 -100 7 -74 7 -92 28 -72 84 8 24 8 42 -1 70
-6 22 -8 42 -4 46 8 9 128 31 174 32 l32 1 0 -58z m896 12 c29 -8 56 -19 58
-23 3 -4 0 -25 -7 -46 -12 -40 -38 -57 -108 -70 -44 -8 -58 13 -33 50 10 16
15 39 12 65 -4 46 -1 47 78 24z m-1221 -44 c-4 -19 0 -42 11 -65 9 -20 14 -39
10 -42 -11 -11 -127 30 -137 48 -18 34 -9 47 44 68 73 28 80 27 72 -9z m694
-87 c-11 -82 -19 -76 -19 12 0 68 2 76 13 61 10 -13 11 -33 6 -73z m552 -210
c7 -86 5 -169 -4 -175 -6 -4 -13 -36 -15 -72 l-4 -65 -32 6 c-17 3 -33 8 -36
10 -11 10 -17 159 -6 172 6 8 11 39 11 70 0 50 2 56 25 62 43 12 60 10 61 -8z
m-1225 -18 c6 -2 15 -21 19 -42 10 -51 15 -252 7 -257 -4 -2 -24 -6 -45 -10
l-38 -7 2 48 c1 26 -4 68 -11 93 -7 25 -13 78 -14 117 l-1 73 35 -6 c19 -3 40
-7 46 -9z m989 -51 c5 -33 3 -49 -6 -54 -8 -5 -12 -32 -11 -79 l2 -71 -43 0
c-23 0 -59 3 -81 7 l-38 6 7 61 c4 34 7 82 7 108 -1 52 1 53 78 61 82 9 77 11
85 -39z m-3646 -231 c-511 -645 -845 -1027 -1492 -1708 -606 -637 -1109 -1125
-1627 -1578 -402 -353 -720 -613 -1688 -1382 -124 -98 -158 -121 -178 -117
-14 2 -24 7 -22 11 2 4 93 92 203 196 1049 995 1767 1694 3270 3185 297 295
781 768 1075 1052 294 283 555 537 580 562 44 46 45 46 48 22 3 -20 -34 -72
-169 -243z m2986 245 c4 -4 6 -17 5 -30 -1 -13 -1 -60 -1 -105 l1 -82 -47 -6
c-27 -3 -58 -7 -71 -9 -34 -5 -44 24 -46 141 l-1 105 77 -4 c42 -2 79 -6 83
-10z m348 -18 c3 -11 1 -23 -4 -26 -5 -3 -9 6 -9 20 0 31 6 34 13 6z m684 -42
c-3 -8 -6 -5 -6 6 -1 11 2 17 5 13 3 -3 4 -12 1 -19z m-3802 -165 c-3 -87 -8
-268 -11 -404 l-6 -245 -250 -108 c-137 -60 -251 -106 -254 -104 -10 11 497
1018 513 1018 10 0 11 -37 8 -157z m2922 85 c-3 -8 -6 -5 -6 6 -1 11 2 17 5
13 3 -3 4 -12 1 -19z m-1592 -1183 c66 -8 150 -15 187 -15 63 0 68 -2 80 -27
9 -20 25 -31 51 -37 21 -6 36 -15 33 -21 -20 -54 -325 -995 -351 -1085 -84
-293 -118 -536 -119 -860 0 -323 26 -471 115 -657 78 -162 197 -306 427 -517
72 -66 129 -123 126 -128 -3 -4 -13 -8 -23 -8 -30 0 -61 -38 -61 -75 0 -43 29
-65 85 -65 22 0 263 33 535 74 272 40 498 71 503 69 4 -2 7 -69 7 -147 l0
-143 -197 -6 c-189 -5 -271 -17 -302 -41 -26 -20 -73 -139 -78 -196 -8 -85 8
-99 125 -107 50 -3 92 -7 92 -8 0 -4 -280 -277 -335 -327 -98 -88 -232 -192
-333 -260 l-104 -68 -235 0 c-220 0 -235 1 -228 18 12 31 18 119 11 166 -5 33
-14 51 -31 62 -31 20 -244 33 -710 42 l-360 7 -5 590 c-3 325 -2 594 2 599 4
5 172 39 374 77 378 70 447 87 464 119 13 24 13 66 0 90 -11 21 -69 43 -102
38 l-23 -3 -3 180 c-4 210 13 827 28 1030 26 347 88 900 160 1423 17 117 30
217 30 222 0 13 22 12 165 -5z m3056 -2287 c49 -27 51 -56 10 -159 -16 -41
-35 -104 -42 -141 -7 -38 -17 -68 -22 -68 -4 0 -6 9 -2 19 9 28 9 237 0 251
-8 12 3 120 12 120 3 0 23 -10 44 -22z m-133 -150 c-1 -68 2 -142 6 -165 5
-28 4 -43 -3 -43 -6 0 -15 19 -21 43 -6 23 -24 70 -40 105 -40 82 -39 107 6
148 19 19 40 34 45 34 5 0 8 -51 7 -122z m290 -38 c24 -57 17 -76 -40 -124
-24 -20 -52 -52 -63 -71 -20 -39 -35 -45 -35 -16 0 16 13 52 50 136 5 11 14
53 21 93 13 74 13 74 30 50 10 -12 27 -43 37 -68z m-423 -52 c4 -24 14 -56 22
-71 8 -16 13 -30 11 -32 -2 -1 -19 -5 -40 -8 l-36 -5 -4 41 c-5 41 16 117 32
117 5 0 11 -19 15 -42z m-5549 -192 c53 -87 80 -120 295 -366 119 -137 127
-148 102 -157 -82 -29 -84 -128 -3 -148 14 -3 219 30 483 80 251 47 462 85
467 85 12 0 13 -157 3 -722 l-6 -405 -255 -6 -255 -7 -121 51 c-249 104 -490
230 -612 320 l-51 38 -41 213 c-73 375 -92 554 -92 854 0 205 7 298 22 274 4
-8 33 -55 64 -104z m6041 -22 l6 -72 -54 -4 c-30 -2 -61 -8 -70 -12 -12 -5
-18 2 -26 29 -11 34 -10 36 29 66 22 18 51 50 65 73 25 39 26 40 35 17 5 -13
11 -57 15 -97z m-4996 26 c120 -12 264 -29 297 -36 22 -4 23 -6 20 -152 l-3
-147 -410 -80 c-225 -45 -424 -84 -441 -88 -30 -6 -34 -2 -75 55 -135 192
-117 345 48 415 96 40 342 54 564 33z m867 -130 c116 -22 217 -40 223 -40 7 0
10 -3 7 -6 -7 -6 -444 -94 -470 -94 -16 0 -18 11 -18 90 0 87 1 90 23 90 12 0
118 -18 235 -40z m2337 -13 l100 -12 3 -126 3 -127 -48 -7 c-71 -10 -111 -30
-118 -58 -6 -22 -15 -25 -88 -36 -45 -6 -218 -33 -384 -59 -167 -27 -303 -45
-303 -40 0 29 65 311 79 343 29 67 99 115 195 135 53 12 432 3 561 -13z m1792
-122 c-3 -47 -10 -92 -15 -102 -8 -14 -12 -13 -27 10 -9 14 -36 38 -60 52 -25
14 -43 31 -40 38 2 6 6 24 9 40 6 23 11 27 44 27 20 0 44 5 52 10 38 25 43 14
37 -75z m-1155 34 l226 -33 6 -27 c6 -33 28 -41 81 -29 38 9 55 6 42 -6 -9
-10 -498 -83 -554 -84 l-53 0 0 111 c0 85 3 110 13 107 6 -3 114 -20 239 -39z
m1582 -115 c34 -5 46 -11 46 -23 0 -10 5 -22 11 -28 5 -5 7 -22 3 -37 -6 -25
-8 -26 -89 -26 l-82 0 -6 35 c-3 18 0 45 6 59 13 28 29 31 111 20z m-570 -36
c18 -18 44 -41 57 -50 24 -17 24 -17 -28 -18 -45 0 -55 3 -69 25 -15 23 -13
75 2 75 3 0 20 -15 38 -32z m345 -33 c-5 -16 -9 -31 -9 -32 0 -2 -7 -3 -16 -3
-10 0 -14 6 -10 18 3 9 8 29 11 44 6 21 10 24 20 15 8 -8 10 -21 4 -42z m551
22 c8 -18 14 -42 12 -54 -3 -22 -8 -23 -82 -23 l-79 0 -9 33 c-6 23 -5 36 5
45 7 7 13 18 13 23 0 5 28 9 63 9 60 -1 62 -2 77 -33z m230 13 c20 0 29 -6 33
-22 3 -13 9 -33 12 -45 7 -23 6 -23 -73 -23 -92 0 -105 11 -76 69 15 29 20 32
46 27 17 -3 43 -6 58 -6z m288 -46 l3 -31 -67 -6 c-37 -4 -70 -5 -72 -3 -2 3
2 21 9 41 l13 36 56 -3 c53 -3 55 -4 58 -34z m247 7 c-6 -5 -31 -11 -57 -14
-37 -3 -48 -1 -48 9 0 10 15 14 57 14 33 0 53 -4 48 -9z m879 -193 c-7 -28
-10 -72 -7 -102 4 -35 1 -65 -8 -85 -17 -38 -49 -42 -49 -7 0 13 -4 26 -10 28
-6 2 -6 24 0 64 7 41 7 79 0 114 -6 29 -10 54 -10 56 0 2 15 7 33 12 27 8 35
6 48 -11 14 -18 15 -26 3 -69z m-250 28 c3 -14 1 -48 -5 -77 -6 -28 -8 -74 -5
-100 4 -31 3 -49 -4 -49 -5 0 -10 8 -10 18 0 10 -5 23 -11 29 -9 9 -9 26 -1
66 6 29 8 72 5 95 -4 33 -3 42 10 42 8 0 18 -11 21 -24z m-226 -86 c-5 -25 -9
-62 -9 -82 1 -21 -3 -38 -9 -38 -5 0 -10 8 -10 18 0 10 -5 23 -11 29 -7 7 -7
28 1 72 6 34 8 65 5 70 -3 5 1 11 7 14 24 8 37 -35 26 -83z m-221 38 c14 -32
-14 -149 -33 -141 -8 3 -14 16 -14 29 0 13 -4 24 -10 24 -13 0 0 93 14 102 19
13 33 9 43 -14z m-3082 -93 c-3 -27 -2 -71 3 -98 7 -33 6 -58 -3 -83 -11 -33
-12 -28 -18 78 -4 62 -7 136 -7 163 l0 50 16 -30 c10 -20 13 -44 9 -80z m231
99 c43 -5 52 -10 63 -35 8 -19 11 -47 7 -77 -4 -26 -3 -68 2 -94 11 -55 -5
-121 -26 -113 -8 3 -47 5 -88 5 -61 0 -72 2 -68 15 4 8 1 22 -6 30 -9 10 -11
34 -7 72 3 31 2 78 -3 105 -7 33 -6 56 2 73 12 27 30 30 124 19z m358 -30 c5
-17 1 -34 -9 -48 -51 -70 -49 -64 -31 -91 9 -14 25 -25 36 -25 17 0 20 -7 20
-49 0 -80 -1 -81 -96 -81 -76 0 -84 2 -84 19 0 11 -5 23 -11 27 -8 4 -10 28
-6 68 3 34 2 82 -3 109 -7 32 -6 55 2 72 11 24 16 25 94 25 80 0 82 -1 88 -26z
m2279 -6 c3 -13 3 -39 -1 -58 -7 -31 -11 -35 -43 -38 l-36 -3 -7 52 c-8 59 -1
69 50 69 25 0 33 -5 37 -22z m-1673 -7 c0 -11 -9 -21 -22 -25 -35 -9 -38 -8
-38 19 0 21 5 25 30 25 23 0 30 -5 30 -19z m300 -6 c0 -8 -7 -15 -15 -15 -16
0 -20 12 -8 23 11 12 23 8 23 -8z m308 -7 c-2 -13 -6 -22 -10 -20 -5 1 -28 2
-52 2 -39 0 -44 2 -39 20 4 17 14 20 55 20 46 0 49 -2 46 -22z m847 -24 l0
-39 -52 0 c-29 1 -54 3 -56 5 -3 3 -2 19 0 37 5 29 9 32 47 36 60 5 61 4 61
-39z m-537 11 c0 -23 -4 -25 -52 -25 -59 0 -79 10 -70 33 5 13 19 17 64 17 55
0 58 -1 58 -25z m288 9 c-3 -9 -6 -23 -6 -32 0 -15 -10 -17 -65 -14 -64 4 -65
4 -65 33 l0 29 71 0 c61 0 70 -2 65 -16z m-8468 -158 c313 -41 615 -118 907
-231 186 -72 567 -244 630 -285 100 -63 233 -135 360 -193 66 -30 138 -63 160
-73 40 -18 34 -18 -490 -26 -291 -4 -636 -4 -766 -1 -328 8 -363 2 -404 -71
-10 -17 -39 -11 -445 102 -756 210 -1449 399 -1635 446 -188 48 -564 152 -571
158 -11 12 872 138 1176 168 330 33 847 36 1078 6z"/>
</g>
</svg>
